<?xml version="1.0" encoding="UTF-8" standalone="no"?>
<!DOCTYPE svg PUBLIC "-//W3C//DTD SVG 1.1//EN"
 "http://www.w3.org/Graphics/SVG/1.1/DTD/svg11.dtd">
<!-- Generated by graphviz version 2.26.3 (20100126.1600)
 -->
<!-- Title: G Pages: 1 -->
<svg width="476pt" height="260pt"
 viewBox="0.00 0.00 476.00 260.00" xmlns="http://www.w3.org/2000/svg" xmlns:xlink="http://www.w3.org/1999/xlink">
<g id="graph1" class="graph" transform="scale(1 1) rotate(0) translate(4 256)">
<title>G</title>
<polygon fill="white" stroke="white" points="-4,5 -4,-256 473,-256 473,5 -4,5"/>
<g id="graph2" class="cluster"><title>cluster_global</title>
<polyline fill="none" stroke="gray" points="20,-8 448,-8 "/>
<path fill="none" stroke="gray" d="M448,-8C454,-8 460,-14 460,-20"/>
<polyline fill="none" stroke="gray" points="460,-20 460,-232 "/>
<path fill="none" stroke="gray" d="M460,-232C460,-238 454,-244 448,-244"/>
<polyline fill="none" stroke="gray" points="448,-244 20,-244 "/>
<path fill="none" stroke="gray" d="M20,-244C14,-244 8,-238 8,-232"/>
<polyline fill="none" stroke="gray" points="8,-232 8,-20 "/>
<path fill="none" stroke="gray" d="M8,-20C8,-14 14,-8 20,-8"/>
<text text-anchor="middle" x="234" y="-230.1" font-family="Times Roman,serif" font-size="11.00" fill="gray">global</text>
</g>
<!-- \\lessc -->
<g id="node2" class="node"><title>\\lessc</title>
<a xlink:href="lessc.inc.html" xlink:title="lessc" target="_parent">
<polygon fill="none" stroke="black" points="383,-214 329,-214 329,-178 383,-178 383,-214"/>
<text text-anchor="middle" x="356" y="-193.1" font-family="Courier,monospace" font-size="11.00">lessc</text>
</a>
</g>
<!-- \\lessc_parser -->
<g id="node3" class="node"><title>\\lessc_parser</title>
<a xlink:href="lessc.inc.html" xlink:title="lessc_parser" target="_parent">
<polygon fill="none" stroke="black" points="405,-160 307,-160 307,-124 405,-124 405,-160"/>
<text text-anchor="middle" x="356" y="-139.1" font-family="Courier,monospace" font-size="11.00">lessc_parser</text>
</a>
</g>
<!-- \\lessc_formatter_classic -->
<g id="node4" class="node"><title>\\lessc_formatter_classic</title>
<a xlink:href="lessc.inc.html" xlink:title="lessc_formatter_classic" target="_parent">
<polygon fill="none" stroke="black" points="188,-79 16,-79 16,-43 188,-43 188,-79"/>
<text text-anchor="middle" x="102" y="-58.1" font-family="Courier,monospace" font-size="11.00">lessc_formatter_classic</text>
</a>
</g>
<!-- \\lessc_formatter_compressed -->
<g id="node5" class="node"><title>\\lessc_formatter_compressed</title>
<a xlink:href="lessc.inc.html" xlink:title="lessc_formatter_compressed" target="_parent">
<polygon fill="none" stroke="black" points="452,-106 260,-106 260,-70 452,-70 452,-106"/>
<text text-anchor="middle" x="356" y="-85.1" font-family="Courier,monospace" font-size="11.00">lessc_formatter_compressed</text>
</a>
</g>
<!-- \\lessc_formatter_compressed&#45;&gt;\\lessc_formatter_classic -->
<g id="edge3" class="edge"><title>\\lessc_formatter_compressed&#45;&gt;\\lessc_formatter_classic</title>
<path fill="none" stroke="black" d="M259.973,-77.7925C239.783,-75.6462 218.481,-73.3818 198.281,-71.2346"/>
<polygon fill="none" stroke="black" points="198.462,-67.7342 188.148,-70.1574 197.722,-74.695 198.462,-67.7342"/>
</g>
<!-- \\lessc_formatter_lessjs -->
<g id="node6" class="node"><title>\\lessc_formatter_lessjs</title>
<a xlink:href="lessc.inc.html" xlink:title="lessc_formatter_lessjs" target="_parent">
<polygon fill="none" stroke="black" points="438,-52 274,-52 274,-16 438,-16 438,-52"/>
<text text-anchor="middle" x="356" y="-31.1" font-family="Courier,monospace" font-size="11.00">lessc_formatter_lessjs</text>
</a>
</g>
<!-- \\lessc_formatter_lessjs&#45;&gt;\\lessc_formatter_classic -->
<g id="edge5" class="edge"><title>\\lessc_formatter_lessjs&#45;&gt;\\lessc_formatter_classic</title>
<path fill="none" stroke="black" d="M273.182,-42.8034C249.261,-45.3462 222.951,-48.143 198.286,-50.7649"/>
<polygon fill="none" stroke="black" points="197.769,-47.3 188.195,-51.8375 198.509,-54.2608 197.769,-47.3"/>
</g>
</g>
</svg>
